<svg width="800" height="800" viewBox="0 0 800 800" fill="none" xmlns="http://www.w3.org/2000/svg">
<path d="M571.429 100H299.886C247.771 100 205.6 142.171 205.6 194.286V202.857H194.286C142.171 202.857 100 245.029 100 297.143V605.714C100 657.829 142.171 700 194.286 700H502.857C545.714 700 581.714 670.857 593.029 631.429H605.714C657.829 631.429 700 589.257 700 537.143V228.571C700 157.6 642.4 100 571.429 100ZM502.857 648.571H194.286C170.629 648.571 151.429 629.371 151.429 605.714V297.143C151.429 273.486 170.629 254.286 194.286 254.286H502.857C526.514 254.286 545.714 273.486 545.714 297.143V605.714C545.714 629.371 526.514 648.571 502.857 648.571ZM648.571 537.143C648.571 560.8 629.371 580 605.714 580H597.143V297.143C597.143 245.029 554.971 202.857 502.857 202.857H257.029V194.286C257.029 170.629 276.229 151.429 299.886 151.429H571.429C613.943 151.429 648.571 186.057 648.571 228.571V537.143Z" fill="black"/>
</svg>
