<svg version="1.1" id="Layer_1" xmlns="http://www.w3.org/2000/svg" xmlns:xlink="http://www.w3.org/1999/xlink" x="0px" y="0px"
	 width="100%" viewBox="0 0 1024 816" enable-background="new 0 0 1024 816" xml:space="preserve">
<path fill="#000000" opacity="1.000000" stroke="none" 
	d="
M434.829895,430.204163 
	C449.170624,448.380890 447.745178,470.290375 431.189148,485.699005 
	C427.756531,488.893707 426.340851,491.593384 427.065735,496.726990 
	C430.463562,520.791504 412.599274,542.336365 388.131653,544.232361 
	C383.539490,544.588257 380.355621,545.757996 378.507080,550.410217 
	C376.713379,554.924438 373.481873,558.710571 369.593262,561.653076 
	C366.882782,563.704102 366.031830,566.095032 366.087799,569.358887 
	C366.239105,578.187378 366.189484,587.020752 366.111359,595.851257 
	C366.045044,603.348999 363.332764,606.032043 355.811676,606.181274 
	C352.481079,606.247375 349.135498,606.334473 345.817871,606.105774 
	C340.330261,605.727295 337.763214,602.946472 337.686096,597.404602 
	C337.593384,590.740784 337.601074,584.074402 337.666931,577.410095 
	C337.692902,574.781677 336.812256,573.394592 333.958801,573.319519 
	C326.473083,573.122498 319.575562,570.728027 313.101318,567.126343 
	C311.156464,566.044434 309.670776,565.826965 307.617615,567.031799 
	C301.363007,570.702148 294.542877,572.872559 287.285614,573.273193 
	C284.251282,573.440735 283.198425,574.737488 283.235504,577.613037 
	C283.317169,583.943604 283.315552,590.277039 283.229431,596.607666 
	C283.140289,603.158569 280.337433,605.971436 273.744080,606.169861 
	C270.248322,606.275024 266.739502,606.320679 263.249115,606.144592 
	C257.501495,605.854553 254.765350,603.037231 254.707657,597.294434 
	C254.615601,588.130920 254.573868,578.963989 254.733475,569.802368 
	C254.789871,566.564758 254.061920,564.161804 251.364853,562.053589 
	C247.127823,558.741699 243.669846,554.563293 241.616165,549.562561 
	C240.036453,545.715942 237.391235,544.578918 233.522568,544.303955 
	C212.950272,542.842041 196.919128,528.357361 193.185638,508.185333 
	C192.284180,503.314697 192.781433,498.530731 193.953522,493.834167 
	C194.557770,491.412903 194.279556,489.827942 192.199051,488.260193 
	C170.953125,472.250427 170.101120,441.174652 192.184006,424.253754 
	C193.905365,422.934814 194.819611,421.690186 194.096359,419.225250 
	C188.113281,398.834290 201.905396,373.777649 229.076050,368.944611 
	C235.895004,367.731659 240.108536,365.527191 243.962936,359.265594 
	C256.017395,339.682739 283.273407,333.366669 305.085571,344.369568 
	C308.958069,346.322998 311.674133,346.240967 315.553406,344.272827 
	C339.824463,331.958801 369.736145,342.254333 379.828247,364.458740 
	C380.976715,366.985565 382.720764,367.621490 385.275818,367.881134 
	C398.157104,369.189941 409.392212,373.940643 418.051788,383.970398 
	C426.217194,393.427765 429.044037,404.479645 427.017029,416.535309 
	C426.267792,420.991577 426.780975,423.819427 430.631653,426.151947 
	C432.156769,427.075806 433.284027,428.656586 434.829895,430.204163 
M254.344849,369.936493 
	C253.664841,371.809906 252.878937,373.652527 252.324402,375.562347 
	C250.572021,381.597717 248.557861,383.062073 242.200180,382.461517 
	C237.823181,382.048035 233.538422,382.497650 229.333511,383.624207 
	C212.155624,388.226501 203.338516,404.424011 209.622910,419.737030 
	C212.736343,427.323456 212.107208,429.130463 204.880554,433.357391 
	C185.648285,444.606354 185.733871,468.288879 205.046585,479.310364 
	C212.092728,483.331421 212.806656,485.453918 209.598404,492.988037 
	C205.354172,502.955048 207.216522,511.893890 214.326584,519.797363 
	C221.689697,527.982117 231.122604,530.676941 241.869186,529.908875 
	C248.528854,529.432861 250.575745,530.985657 252.296097,537.249878 
	C253.099304,540.174561 254.325439,542.883545 255.991409,545.398071 
	C265.823761,560.237854 287.953339,563.389038 303.494843,552.171265 
	C309.763458,547.646606 311.025055,547.515869 317.103516,552.214539 
	C334.265167,565.480591 363.583679,558.666016 368.719391,535.746582 
	C369.663208,531.534485 372.634186,529.788269 376.790649,529.772095 
	C380.284576,529.758484 383.805298,530.008911 387.267883,529.669922 
	C405.987854,527.837524 417.868988,509.281097 410.996216,492.779358 
	C407.769714,485.032501 408.284149,483.455261 415.583405,479.204376 
	C424.595825,473.955811 430.076874,466.466827 429.914917,455.737152 
	C429.755341,445.170349 423.971405,438.077026 415.082642,433.103638 
	C408.613434,429.484039 407.818756,427.026764 410.775940,420.148438 
	C415.193451,409.873322 413.243927,399.522278 405.252106,391.694122 
	C397.601624,384.200256 388.224731,381.533783 377.760468,382.549683 
	C372.762024,383.034943 369.799957,381.145538 368.600494,376.279449 
	C367.841553,373.200500 366.719208,370.270081 364.949310,367.574219 
	C354.883148,352.241547 332.526703,348.934296 316.722839,360.486908 
	C311.083344,364.609253 309.158081,364.590546 303.492249,360.358154 
	C287.417419,348.350250 265.476959,352.362152 254.344849,369.936493 
z"/>
<path fill="#000000" opacity="1.000000" stroke="none" 
	d="
M833.078369,423.834900 
	C855.341125,441.670013 855.656433,470.082001 834.004883,488.050934 
	C831.973450,489.736816 831.236755,491.213379 831.915283,493.988983 
	C838.045715,519.067017 818.263916,541.528564 793.709106,544.182617 
	C788.942444,544.697815 785.676392,545.880371 783.753479,550.660767 
	C781.939514,555.169983 778.592712,558.893860 774.766785,561.873840 
	C771.908936,564.099731 771.184326,566.647583 771.252075,570.058411 
	C771.427551,578.885986 771.343872,587.720154 771.270874,596.550842 
	C771.216309,603.156006 768.470398,605.953308 761.874390,606.165100 
	C758.379028,606.277405 754.870056,606.315552 751.379456,606.141418 
	C745.656433,605.855896 742.873779,603.036499 742.756531,597.297302 
	C742.620361,590.634888 742.663757,583.967163 742.741760,577.302979 
	C742.772888,574.644043 741.876221,573.346313 739.012146,573.291687 
	C731.686523,573.152222 724.951904,570.742859 718.647522,567.198975 
	C716.489136,565.985718 714.828369,565.918701 712.678467,567.168457 
	C706.399414,570.818665 699.567566,572.911987 692.306396,573.283264 
	C689.253174,573.439453 688.270447,574.843750 688.308044,577.688416 
	C688.391724,584.019104 688.359924,590.351929 688.313293,596.683472 
	C688.264587,603.296631 685.593506,605.995544 678.914368,606.188049 
	C676.083984,606.269653 673.249146,606.230347 670.416809,606.201782 
	C662.586304,606.122864 659.828918,603.430603 659.780212,595.708557 
	C659.727661,587.377380 659.567444,579.040161 659.823059,570.716858 
	C659.945618,566.727478 659.002625,563.769653 655.741333,561.225525 
	C652.046814,558.343445 648.891846,554.649780 647.180420,550.307068 
	C645.403198,545.797668 642.283386,544.726868 637.977905,544.270142 
	C625.516113,542.948364 614.986450,537.597229 607.101685,527.758850 
	C599.274536,517.992493 596.412781,506.783356 599.121216,494.480682 
	C599.807922,491.361420 599.004150,489.628204 596.730164,487.642639 
	C575.780396,469.350433 575.968689,442.786285 597.135010,424.550537 
	C598.935486,422.999329 600.004822,421.596954 599.379028,419.043518 
	C593.102722,393.434570 612.593750,372.117554 635.087341,368.821014 
	C641.404663,367.895203 645.354980,365.891357 648.873352,359.901062 
	C660.628479,339.886841 688.708801,333.211304 710.638000,344.503052 
	C714.100220,346.285828 716.651489,346.502899 720.233154,344.612305 
	C745.280273,331.391357 775.748352,342.798706 785.216675,364.725708 
	C786.273926,367.174103 787.953857,367.589813 790.279236,367.829926 
	C806.625183,369.517761 820.025513,376.230499 828.220459,391.110992 
	C832.964478,399.725281 834.399841,408.976562 832.014648,418.644043 
	C831.563904,420.470917 830.898376,422.210968 833.078369,423.834900 
M671.044067,554.513916 
	C683.487305,560.840637 695.745850,560.788452 707.499878,552.965454 
	C715.479004,547.654907 715.459106,547.325378 723.187012,552.843567 
	C741.528748,565.940491 770.153503,556.860901 773.912842,535.709961 
	C774.653320,531.543945 777.797974,529.732849 782.000610,529.762024 
	C785.495239,529.786316 789.018616,530.014954 792.480652,529.667786 
	C810.875061,527.823303 823.067688,509.714478 816.691284,493.884247 
	C813.007507,484.738861 813.263306,483.962830 821.678711,478.754089 
	C840.246460,467.261566 839.898438,444.115204 820.995789,433.337189 
	C813.852112,429.263947 813.169312,427.282013 816.289001,419.676147 
	C820.702820,408.915253 818.101624,397.937897 809.203796,390.359741 
	C801.688721,383.959229 792.865784,381.557312 783.152893,382.556732 
	C778.177185,383.068756 774.714294,381.231476 773.898743,376.380432 
	C770.805115,357.978180 744.119385,345.499939 723.739258,359.332184 
	C715.596069,364.859070 715.633850,364.969482 707.568298,359.469635 
	C687.847473,346.022186 660.823120,356.806366 657.196533,376.718170 
	C656.387207,381.161621 653.071899,383.021790 648.658752,382.581940 
	C644.304688,382.148010 640.039368,382.348633 635.757446,383.301758 
	C619.186340,386.990448 606.823425,404.196716 615.601562,421.389343 
	C618.293518,426.661774 616.855713,429.573059 611.235352,432.727417 
	C602.230347,437.781311 596.289062,444.881195 595.993225,455.683350 
	C595.676453,467.250610 602.028931,474.610809 611.491272,479.967194 
	C616.939392,483.051270 618.198303,486.043732 615.535767,491.420349 
	C608.060486,506.515167 616.537781,520.189575 627.614075,526.169006 
	C634.041443,529.638733 640.853943,530.395996 647.955811,529.815979 
	C652.716797,529.427185 656.143677,531.096313 657.279907,536.057312 
	C659.090881,543.964661 663.553955,549.908264 671.044067,554.513916 
z"/>
<path fill="#000000" opacity="1.000000" stroke="none" 
	d="
M477.002441,496.328278 
	C472.341888,496.320831 468.180481,496.281647 464.019623,496.314789 
	C460.476440,496.343018 458.745941,494.456390 458.730560,491.101685 
	C458.667908,477.453491 458.651672,463.804565 458.731567,450.156586 
	C458.755096,446.132843 461.357391,444.765076 465.046051,444.771637 
	C474.866425,444.789124 484.689056,444.636719 494.506195,444.810974 
	C498.316559,444.878601 499.966766,443.765778 499.731262,439.696991 
	C499.433624,434.554718 499.697540,429.381348 499.666687,424.221680 
	C499.653107,421.946289 500.027405,419.915375 502.178497,418.625275 
	C504.468719,417.251740 506.371185,418.326263 508.145294,419.636169 
	C529.030884,435.056702 549.924011,450.467316 570.744263,465.975800 
	C574.708374,468.928558 574.617859,472.432861 570.676575,475.365875 
	C550.120483,490.662903 529.520752,505.901093 508.937500,521.161560 
	C507.022705,522.581238 505.056854,523.914978 502.540802,522.768188 
	C499.771729,521.506042 499.651978,518.992249 499.662964,516.408691 
	C499.685638,511.082550 499.573608,505.754700 499.673035,500.430450 
	C499.729248,497.420471 498.422852,496.260071 495.477783,496.307068 
	C489.487213,496.402618 483.493958,496.330780 477.002441,496.328278 
z"/>
<path fill="#000000" opacity="1.000000" stroke="none" 
	d="
M520.262634,218.704071 
	C522.862244,223.404938 525.335510,227.744858 527.657593,232.164246 
	C529.891357,236.415558 531.968567,240.749084 534.397949,245.613907 
	C534.397949,236.538467 534.537598,228.038635 534.334656,219.546997 
	C534.243286,215.722092 535.004456,213.661896 539.467834,213.707962 
	C547.654236,213.792465 548.172485,213.802277 548.195007,218.951279 
	C548.259094,233.604050 548.129578,248.257889 548.240723,262.910065 
	C548.269348,266.688171 546.926331,267.892700 543.067566,268.359772 
	C535.071289,269.327698 530.100098,266.871521 526.821289,259.121674 
	C523.273621,250.736191 518.396362,242.913193 513.306396,234.845688 
	C513.306396,243.497864 513.312317,252.150040 513.304504,260.802216 
	C513.298462,267.457581 507.460175,270.858032 501.419067,267.797607 
	C499.719177,266.936432 499.717590,265.459167 499.715088,263.979767 
	C499.689331,248.660736 499.728271,233.341522 499.662933,218.022705 
	C499.650421,215.089355 500.784790,213.704956 503.776215,213.798737 
	C506.604095,213.887375 509.458679,214.038040 512.262390,213.762665 
	C516.120117,213.383728 518.709656,214.735733 520.262634,218.704071 
z"/>
<path fill="#000000" opacity="1.000000" stroke="none" 
	d="
M453.796631,266.493469 
	C439.131805,258.411560 434.348511,239.313126 443.136353,225.188553 
	C451.163696,212.286285 469.738403,208.781952 482.831177,217.699615 
	C493.664795,225.078568 497.479034,240.740417 491.550140,253.500961 
	C485.779419,265.921021 472.002594,271.879089 457.900604,268.021179 
	C456.621460,267.671234 455.399597,267.112030 453.796631,266.493469 
M469.421112,226.036728 
	C462.568451,224.688416 457.858093,226.992661 455.511078,233.293243 
	C453.399170,238.962830 453.535858,244.753418 456.225708,250.239685 
	C459.612885,257.148285 468.736969,258.656464 474.420593,253.410690 
	C481.251251,247.106293 480.257355,228.418304 469.421112,226.036728 
z"/>
<path fill="#000000" opacity="1.000000" stroke="none" 
	d="
M592.633057,268.057617 
	C581.359802,268.157288 570.544434,268.065735 559.734436,268.266327 
	C555.736084,268.340515 554.592590,266.708588 554.629883,262.926727 
	C554.774109,248.287582 554.774414,233.645279 554.625854,219.006180 
	C554.586792,215.150833 555.898499,213.665863 559.823059,213.737808 
	C569.802002,213.920700 579.790100,213.965500 589.767151,213.737885 
	C595.239136,213.613022 594.243225,217.230667 594.385010,220.468338 
	C594.535706,223.912872 594.442261,226.736694 589.595093,226.461487 
	C584.123596,226.150818 578.616821,226.522446 573.129883,226.399689 
	C570.083801,226.331543 569.061707,227.583878 569.080139,230.551010 
	C569.098633,233.522720 570.157532,234.778854 573.191223,234.690750 
	C577.845398,234.555588 582.508911,234.758972 587.164307,234.646423 
	C590.066467,234.576248 591.269836,235.608368 591.394348,238.667328 
	C591.728699,246.882980 591.666199,247.084015 583.457153,247.112366 
	C580.296143,247.123276 577.131042,247.224777 573.975159,247.100006 
	C570.760925,246.972961 569.022766,247.901993 569.083740,251.576141 
	C569.141907,255.081680 570.923584,255.708633 573.841919,255.648438 
	C578.830811,255.545502 583.827393,255.510590 588.812744,255.680542 
	C590.942017,255.753128 594.301208,254.452194 594.777161,257.523468 
	C595.309570,260.959625 597.151184,265.098236 592.633057,268.057617 
z"/>
<path fill="#000000" opacity="1.000000" stroke="none" 
	d="
M365.278748,241.807709 
	C366.456818,253.450180 375.193115,258.536621 387.857605,255.340591 
	C389.447205,254.939438 390.996521,254.378616 392.519806,253.905685 
	C396.777618,262.467285 394.143555,267.200500 385.094147,268.474426 
	C379.881165,269.208252 374.796265,269.039062 369.782593,267.774323 
	C356.943542,264.535645 349.309021,253.777100 349.716919,239.813110 
	C350.092438,226.959320 359.261932,216.090561 371.754150,213.718887 
	C376.681610,212.783386 381.554108,212.578156 386.600342,213.410812 
	C391.545074,214.226715 394.254425,216.095734 393.386993,221.484634 
	C393.055054,223.546906 393.875214,225.788635 392.187347,228.104370 
	C384.657654,225.486801 376.844452,223.335938 369.717468,229.209351 
	C365.953918,232.310944 365.013000,236.688232 365.278748,241.807709 
z"/>
<path fill="#000000" opacity="1.000000" stroke="none" 
	d="
M662.301880,251.996796 
	C662.291870,256.489441 662.256775,260.483154 662.283447,264.476471 
	C662.299805,266.925690 661.215942,268.221008 658.702026,268.180603 
	C658.535889,268.177948 658.369141,268.188446 658.203369,268.201538 
	C648.053101,269.001892 647.818359,268.781769 647.824768,258.673523 
	C647.830322,250.020523 647.544312,241.355286 647.924438,232.719101 
	C648.153320,227.520126 646.205383,225.683121 641.292847,226.386871 
	C640.803345,226.457016 640.295715,226.401596 639.796509,226.402023 
	C632.564270,226.408066 632.756531,226.403992 632.609497,219.284943 
	C632.525818,215.232437 633.841858,213.657135 638.025085,213.730682 
	C649.336975,213.929535 660.660767,214.005112 671.967590,213.690262 
	C677.179626,213.545120 677.393921,216.260788 677.433960,220.210556 
	C677.475586,224.312164 676.929321,226.623917 671.826477,226.507492 
	C661.129639,226.263382 662.388794,224.977539 662.310303,236.022141 
	C662.273682,241.180420 662.303284,246.339172 662.301880,251.996796 
z"/>
<path fill="#000000" opacity="1.000000" stroke="none" 
	d="
M413.303284,246.876358 
	C413.308350,248.520126 413.417297,249.695297 413.295227,250.845932 
	C412.890289,254.662888 414.770905,255.782135 418.309937,255.654739 
	C423.457947,255.469421 428.630219,255.826782 433.768188,255.533081 
	C438.791229,255.245956 438.408478,258.433411 438.382416,261.698883 
	C438.355560,265.063965 438.957245,268.443268 433.610840,268.302979 
	C423.640961,268.041412 413.658600,268.134003 403.683563,268.254517 
	C400.033691,268.298645 398.683899,266.842041 398.712769,263.219849 
	C398.830780,248.422165 398.861389,233.622223 398.719269,218.825073 
	C398.680786,214.819901 400.349640,213.398392 404.099976,213.752182 
	C405.088501,213.845444 406.107483,213.865219 407.089264,213.738602 
	C411.886719,213.119858 413.536285,215.190033 413.380615,219.961227 
	C413.093384,228.764481 413.300293,237.583862 413.303284,246.876358 
z"/>
<path fill="#000000" opacity="1.000000" stroke="none" 
	d="
M614.685913,246.999771 
	C614.684875,238.024948 614.678955,229.550095 614.685120,221.075241 
	C614.690430,213.770798 614.696533,213.770615 622.222168,213.777374 
	C623.053040,213.778107 623.886536,213.827484 624.714233,213.777527 
	C627.937866,213.582962 629.171814,215.215073 629.162964,218.292099 
	C629.119446,233.413712 629.107239,248.535568 629.147156,263.657166 
	C629.155212,266.713654 628.011963,268.096283 624.772034,268.265656 
	C614.695068,268.792480 614.699402,268.896912 614.688599,258.965759 
	C614.684448,255.143753 614.686829,251.321747 614.685913,246.999771 
z"/>
<path fill="#000000" opacity="1.000000" stroke="none" 
	d="
M233.147552,436.426178 
	C236.776703,428.294586 243.170456,423.255585 250.300430,418.502594 
	C246.748138,411.383179 246.132050,404.579407 252.342468,398.769379 
	C256.712128,394.681427 261.731659,394.265991 269.980652,397.138214 
	C271.897949,392.333557 273.519806,387.198822 278.906433,384.812653 
	C284.026459,382.544495 288.958038,383.487244 294.018890,385.529175 
	C297.332397,380.152802 301.067017,375.663177 308.005676,375.559357 
	C313.807251,375.472565 318.358429,377.524261 321.638489,382.345612 
	C322.519714,383.640961 322.916290,385.241821 325.305664,384.922058 
	C339.804260,382.981750 342.218109,384.381226 347.105682,396.953766 
	C362.726227,390.643982 373.256531,402.616364 368.041473,416.997192 
	C371.026459,419.214813 374.174591,421.359589 377.108612,423.765472 
	C393.664795,437.341492 392.060760,456.990021 385.281494,473.492615 
	C384.051453,476.486938 381.858978,475.289337 379.820709,474.513092 
	C370.489105,470.959106 364.090546,466.043427 354.703888,455.135864 
	C352.849121,456.450226 353.025970,458.675049 352.591003,460.424774 
	C349.585236,472.516449 346.549042,484.582184 344.985992,497.008118 
	C342.883606,513.721436 327.913269,528.790100 306.173828,527.433899 
	C289.723755,526.407715 275.753906,513.213867 273.622314,495.640686 
	C272.039581,482.592499 268.671783,469.920166 265.332977,457.333435 
	C263.299011,456.845886 262.793732,458.323792 262.013794,459.287537 
	C256.071991,466.629883 248.188293,471.145630 239.663162,474.753906 
	C237.555573,475.645996 235.788849,475.797424 234.821548,473.207336 
	C230.358109,461.255768 228.025726,449.199066 233.147552,436.426178 
M316.183838,449.040955 
	C319.875336,455.091278 324.685272,457.224030 330.825684,455.533203 
	C335.377502,454.279816 339.232483,449.270752 339.440033,444.339966 
	C339.643677,439.502228 336.195831,434.476288 331.296295,432.881195 
	C326.915100,431.454834 322.666443,431.892792 319.131775,435.083130 
	C315.118164,438.705688 314.444763,443.295624 316.183838,449.040955 
M301.558990,440.343414 
	C301.029724,439.316681 300.620697,438.202942 299.951141,437.277710 
	C296.364166,432.321075 290.290497,430.707764 284.924103,433.211090 
	C279.592255,435.698334 276.992035,441.418243 278.484222,447.377319 
	C279.875305,452.932739 285.191925,456.426453 291.440887,455.891541 
	C298.557983,455.282318 302.378326,449.786255 301.558990,440.343414 
z"/>
<path fill="#000000" opacity="1.000000" stroke="none" 
	d="
M640.862854,431.993713 
	C644.327087,427.187683 648.333618,423.458557 652.904297,420.321472 
	C654.469482,419.247192 655.939026,418.292664 654.669800,415.949860 
	C651.394043,409.903412 652.445984,404.212250 657.020264,399.416077 
	C661.859009,394.342682 667.790833,394.009583 674.044006,396.724365 
	C674.327393,396.847412 674.691467,396.784576 675.018433,396.802734 
	C682.266296,383.129364 685.298523,381.666321 699.107056,385.174805 
	C707.242981,371.886047 721.686340,372.376831 728.978088,385.166168 
	C741.878052,381.526886 746.377380,383.739563 752.534180,396.753662 
	C753.598206,397.132385 754.450806,396.521851 755.364197,396.160278 
	C760.896179,393.970398 766.026550,395.057068 770.230957,398.926208 
	C774.425232,402.785950 776.173035,407.867859 774.194092,413.465698 
	C773.133301,416.466492 773.951233,417.949554 776.476196,419.503754 
	C797.455627,432.417236 798.752014,451.741547 791.075195,472.352325 
	C789.924866,475.440857 788.155029,475.885590 785.268372,474.631836 
	C776.111694,470.654694 767.839294,465.553192 761.912903,457.254791 
	C761.360901,456.481873 761.010681,455.433929 759.030090,455.233307 
	C756.798401,464.783691 754.427429,474.406006 752.338562,484.089203 
	C751.288269,488.957977 750.898621,493.965912 749.953369,498.861298 
	C747.046448,513.916565 733.572083,528.853149 711.063293,527.411682 
	C694.921448,526.377930 681.081177,513.188782 678.798035,495.260071 
	C677.118042,482.066925 673.692810,469.293732 670.257568,455.713593 
	C663.601440,464.635101 655.477173,470.426208 645.931641,474.412720 
	C642.566101,475.818359 640.791016,475.369873 639.555359,471.753571 
	C635.003113,458.430542 632.834351,445.243164 640.862854,431.993713 
M689.345032,433.598846 
	C684.378296,436.699219 682.402893,441.326813 683.601685,446.862030 
	C684.620605,451.566833 687.827759,454.787354 692.746521,455.701141 
	C697.707336,456.622711 702.005737,455.385223 705.102173,451.112366 
	C708.195679,446.843567 708.237488,441.413513 705.219299,437.145020 
	C701.906250,432.459473 696.747192,431.136108 689.345032,433.598846 
M737.849609,433.373352 
	C732.807373,431.360809 728.087158,431.543488 724.037170,435.574371 
	C720.710144,438.885742 719.483215,442.850739 720.841003,447.427765 
	C722.345947,452.500336 726.655579,455.763184 731.899170,455.921844 
	C737.611267,456.094696 741.803345,453.259521 743.768311,447.894623 
	C745.747925,442.489746 744.150391,438.168823 737.849609,433.373352 
z"/>
<path fill="#000000" opacity="1.000000" stroke="none" 
	d="
M330.785828,439.010956 
	C333.924774,442.246857 334.280884,445.478119 331.479919,448.525055 
	C329.029938,451.190186 325.871735,451.335724 322.945587,449.339478 
	C320.117584,447.410187 319.626404,444.504944 320.839111,441.408691 
	C322.234314,437.846558 325.536865,436.988434 330.785828,439.010956 
z"/>
<path fill="#000000" opacity="1.000000" stroke="none" 
	d="
M286.381042,439.399109 
	C290.255371,436.895477 293.652252,436.884308 296.247498,440.466064 
	C298.046631,442.949066 297.920532,445.836273 296.061890,448.300079 
	C294.102753,450.897217 291.220398,451.083710 288.442352,450.056854 
	C285.693115,449.040649 284.497681,446.745026 284.635010,443.778809 
	C284.705566,442.254303 285.019257,440.846741 286.381042,439.399109 
z"/>
<path fill="#000000" opacity="1.000000" stroke="none" 
	d="
M693.163147,449.897247 
	C690.269775,447.865540 689.175049,445.401337 689.976074,442.327118 
	C690.613464,439.880585 692.296143,438.292755 694.797546,437.813629 
	C697.639221,437.269379 700.121277,437.997070 701.758789,440.532288 
	C703.242249,442.829041 703.291687,445.273834 701.803406,447.579651 
	C699.780029,450.714691 696.860107,451.207336 693.163147,449.897247 
z"/>
<path fill="#000000" opacity="1.000000" stroke="none" 
	d="
M727.429810,439.409485 
	C730.456360,437.201447 733.263672,436.984650 736.001892,438.977753 
	C738.464844,440.770416 738.780762,443.405060 738.159058,446.126343 
	C737.591553,448.610321 735.816772,450.040253 733.355652,450.604065 
	C730.836304,451.181274 728.713440,450.402954 727.204773,448.385864 
	C725.097046,445.567932 725.001282,442.611664 727.429810,439.409485 
z"/>
</svg>