<svg version="1.1" id="Layer_1" xmlns="http://www.w3.org/2000/svg" xmlns:xlink="http://www.w3.org/1999/xlink" x="0px" y="0px"
	 width="100%" viewBox="0 0 1024 1024" enable-background="new 0 0 1024 1024" xml:space="preserve">
<path fill="#000000" opacity="1.000000" stroke="none" 
	d="
M624.774231,799.920776 
	C593.076477,812.036255 560.738098,819.161255 527.139282,820.373779 
	C435.935211,823.665039 357.781281,793.081360 293.468231,728.626831 
	C249.356140,684.417603 221.951859,630.936340 210.475342,569.362244 
	C205.596359,543.185303 203.636475,516.854980 205.891037,490.372498 
	C212.735275,409.979095 245.136719,341.729523 304.360443,286.660858 
	C346.495178,247.482239 395.926208,221.843475 452.458221,211.318726 
	C549.230957,193.302231 636.377136,215.272964 712.100769,278.435638 
	C765.297729,322.808289 798.819275,379.763977 813.745117,447.413788 
	C820.484558,477.959412 822.356995,508.874664 819.526428,540.156433 
	C814.081177,600.333923 793.060486,654.331299 756.042297,701.955200 
	C721.422668,746.493225 677.673462,779.082031 624.774231,799.920776 
M352.662323,310.181396 
	C335.997009,323.391693 320.905182,338.250549 308.183868,355.255035 
	C263.210999,415.369843 246.255692,482.657898 258.391754,556.823059 
	C266.394623,605.729858 287.049500,649.095093 320.617371,685.472534 
	C380.098541,749.932251 453.924988,778.227539 541.491028,769.821777 
	C573.560059,766.743469 603.827637,757.396484 632.247314,742.449890 
	C731.487244,690.257507 785.858887,582.639099 768.434753,472.147491 
	C760.193665,419.887817 737.945374,373.966309 701.104858,335.852325 
	C638.298950,270.875336 561.437195,245.163864 472.267914,257.701965 
	C428.056610,263.918518 388.325928,281.925781 352.662323,310.181396 
z"/>
<path fill="#000000" opacity="1.000000" stroke="none" 
	d="
M554.406372,590.000122 
	C554.402649,617.319946 554.291992,644.140564 554.491638,670.958862 
	C554.528015,675.852173 552.854858,677.216736 548.156311,677.181274 
	C524.502930,677.002930 500.846985,677.031189 477.193024,677.169800 
	C472.752533,677.195862 471.308807,676.046875 471.328583,671.186584 
	C471.576202,610.394958 471.546875,549.602234 471.556366,488.809753 
	C471.556976,484.984070 471.305206,481.157715 471.144348,477.332794 
	C471.001190,473.929291 472.590271,472.690186 475.986572,472.701904 
	C500.473938,472.786530 524.962402,472.830627 549.448914,472.660339 
	C554.063477,472.628235 554.451599,474.901825 554.444153,478.555786 
	C554.368591,515.537109 554.402710,552.518616 554.406372,590.000122 
z"/>
<path fill="#000000" opacity="1.000000" stroke="none" 
	d="
M513.865295,349.096436 
	C530.896851,350.232239 544.015137,357.392181 552.434448,371.927917 
	C561.811218,388.116608 560.514832,408.258606 548.941711,422.559845 
	C536.725037,437.656372 520.666504,443.503876 501.763550,438.712433 
	C482.608643,433.857117 471.373199,420.790161 467.976959,401.482025 
	C463.524200,376.167542 482.376801,352.026337 507.975525,349.619141 
	C509.795135,349.448029 511.612091,349.248962 513.865295,349.096436 
z"/>
</svg>